solid membrane
facet normal -1 0 0
  outer loop
    vertex 0.11 0.00597545 9.60736e-05
    vertex 0.11 0.00498841 0.000856279
    vertex 0.11 0.00614683 0.00102657
  endloop
endfacet
facet normal -1 0 0
  outer loop
    vertex 0.11 0.00614332 0.00686318
    vertex 0.11 0.00590924 0.00605787
    vertex 0.11 0.00516419 0.00665492
  endloop
endfacet
facet normal -1 -0 0
  outer loop
    vertex 0.11 0.00590924 0.00605787
    vertex 0.11 0.00522533 0.00556816
    vertex 0.11 0.00516419 0.00665492
  endloop
endfacet
facet normal -1 0 0
  outer loop
    vertex 0.11 0.00774015 0.00668903
    vertex 0.11 0.00856122 0.00734955
    vertex 0.11 0.0087385 0.00631309
  endloop
endfacet
facet normal -1 0 0
  outer loop
    vertex 0.11 0.00856122 0.00734955
    vertex 0.11 0.0096194 0.00691342
    vertex 0.11 0.0087385 0.00631309
  endloop
endfacet
facet normal -1 -0 0
  outer loop
    vertex 0.11 0.0018676 0.00752132
    vertex 0.11 0.00114173 0.00658728
    vertex 0.11 0.000842652 0.00777785
  endloop
endfacet
facet normal -1 0 0
  outer loop
    vertex 0.11 0.00100016 0.00430472
    vertex 0.11 0 0.005
    vertex 0.11 0.00096192 0.00548401
  endloop
endfacet
facet normal -1 0 0
  outer loop
    vertex 0.11 0 0.005
    vertex 0.11 9.60736e-05 0.00597545
    vertex 0.11 0.00096192 0.00548401
  endloop
endfacet
facet normal -1 0 0
  outer loop
    vertex 0.11 0.00114173 0.00658728
    vertex 0.11 0.000380602 0.00691342
    vertex 0.11 0.000842652 0.00777785
  endloop
endfacet
facet normal -1 0 0
  outer loop
    vertex 0.11 0.0018676 0.00752132
    vertex 0.11 0.000842652 0.00777785
    vertex 0.11 0.00146447 0.00853553
  endloop
endfacet
facet normal -1 0 0
  outer loop
    vertex 0.11 0.00585641 0.0026842
    vertex 0.11 0.00574819 0.00370012
    vertex 0.11 0.00651382 0.00335614
  endloop
endfacet
facet normal -1 0 0
  outer loop
    vertex 0.11 0.00614332 0.00686318
    vertex 0.11 0.00693781 0.00700803
    vertex 0.11 0.006881 0.00601863
  endloop
endfacet
facet normal -1 -0 0
  outer loop
    vertex 0.11 0.00813162 0.00487777
    vertex 0.11 0.0072433 0.00482466
    vertex 0.11 0.00786088 0.0056314
  endloop
endfacet
facet normal -1 0 -0
  outer loop
    vertex 0.11 0.00693781 0.00700803
    vertex 0.11 0.00774015 0.00668903
    vertex 0.11 0.006881 0.00601863
  endloop
endfacet
facet normal -1 -0 0
  outer loop
    vertex 0.11 0.00294024 0.00516829
    vertex 0.11 0.00185209 0.00515515
    vertex 0.11 0.00239244 0.00587169
  endloop
endfacet
facet normal -1 -0 0
  outer loop
    vertex 0.11 0.00597545 9.60736e-05
    vertex 0.11 0.005 0
    vertex 0.11 0.00498841 0.000856279
  endloop
endfacet
facet normal -1 0 0
  outer loop
    vertex 0.11 0.00384662 0.00893066
    vertex 0.11 0.00308658 0.0096194
    vertex 0.11 0.00402455 0.00990393
  endloop
endfacet
facet normal -1 0 0
  outer loop
    vertex 0.11 0.00216172 0.00655745
    vertex 0.11 0.00114173 0.00658728
    vertex 0.11 0.0018676 0.00752132
  endloop
endfacet
facet normal -1 0 -0
  outer loop
    vertex 0.11 0.00405494 0.00560657
    vertex 0.11 0.00465114 0.00469637
    vertex 0.11 0.00378552 0.00461151
  endloop
endfacet
facet normal -1 0 0
  outer loop
    vertex 0.11 0.0037409 0.0011571
    vertex 0.11 0.00339581 0.00215437
    vertex 0.11 0.00448066 0.00184514
  endloop
endfacet
facet normal -1 0 -0
  outer loop
    vertex 0.11 0.00901666 0.00368148
    vertex 0.11 0.0096194 0.00308658
    vertex 0.11 0.0085539 0.00303333
  endloop
endfacet
facet normal -1 -0 0
  outer loop
    vertex 0.11 0.00901666 0.00368148
    vertex 0.11 0.0085539 0.00303333
    vertex 0.11 0.00805416 0.00395211
  endloop
endfacet
facet normal -1 -0 0
  outer loop
    vertex 0.11 0.0085539 0.00303333
    vertex 0.11 0.00747877 0.00297275
    vertex 0.11 0.00805416 0.00395211
  endloop
endfacet
facet normal -1 0 0
  outer loop
    vertex 0.11 0.00915735 0.00222215
    vertex 0.11 0.0085539 0.00303333
    vertex 0.11 0.0096194 0.00308658
  endloop
endfacet
facet normal -1 0 0
  outer loop
    vertex 0.11 0.0037409 0.0011571
    vertex 0.11 0.00260178 0.00154218
    vertex 0.11 0.00339581 0.00215437
  endloop
endfacet
facet normal -1 0 0
  outer loop
    vertex 0.11 0.00185209 0.00515515
    vertex 0.11 0.00168152 0.00588147
    vertex 0.11 0.00239244 0.00587169
  endloop
endfacet
facet normal -1 0 0
  outer loop
    vertex 0.11 0.00856122 0.00734955
    vertex 0.11 0.00915735 0.00777785
    vertex 0.11 0.0096194 0.00691342
  endloop
endfacet
facet normal -1 0 0
  outer loop
    vertex 0.11 0.00990393 0.00597545
    vertex 0.11 0.0087385 0.00631309
    vertex 0.11 0.0096194 0.00691342
  endloop
endfacet
facet normal -1 0 0
  outer loop
    vertex 0.11 0.00168152 0.00588147
    vertex 0.11 0.00216172 0.00655745
    vertex 0.11 0.00239244 0.00587169
  endloop
endfacet
facet normal -1 0 0
  outer loop
    vertex 0.11 0.00308658 0.000380602
    vertex 0.11 0.0037409 0.0011571
    vertex 0.11 0.00402455 9.60736e-05
  endloop
endfacet
facet normal -1 0 0
  outer loop
    vertex 0.11 0.00222215 0.000842652
    vertex 0.11 0.00146447 0.00146447
    vertex 0.11 0.00260178 0.00154218
  endloop
endfacet
facet normal -1 0 -0
  outer loop
    vertex 0.11 0.00649853 0.00186084
    vertex 0.11 0.00695471 0.00119266
    vertex 0.11 0.00614683 0.00102657
  endloop
endfacet
facet normal -1 -0 0
  outer loop
    vertex 0.11 0.00711592 0.0039309
    vertex 0.11 0.00651382 0.00335614
    vertex 0.11 0.00646839 0.00431651
  endloop
endfacet
facet normal -1 0 -0
  outer loop
    vertex 0.11 0.00711592 0.0039309
    vertex 0.11 0.00747877 0.00297275
    vertex 0.11 0.00651382 0.00335614
  endloop
endfacet
facet normal -1 0 0
  outer loop
    vertex 0.11 0.00499248 0.00321416
    vertex 0.11 0.00585641 0.0026842
    vertex 0.11 0.00503157 0.0023472
  endloop
endfacet
facet normal -1 0 0
  outer loop
    vertex 0.11 0.00649853 0.00186084
    vertex 0.11 0.00675342 0.00262126
    vertex 0.11 0.00742798 0.00189136
  endloop
endfacet
facet normal -1 0 0
  outer loop
    vertex 0.11 0.00585641 0.0026842
    vertex 0.11 0.00555047 0.00177298
    vertex 0.11 0.00503157 0.0023472
  endloop
endfacet
facet normal -1 0 0
  outer loop
    vertex 0.11 0.00901859 0.00451493
    vertex 0.11 0.00901666 0.00368148
    vertex 0.11 0.00805416 0.00395211
  endloop
endfacet
facet normal -1 0 0
  outer loop
    vertex 0.11 0.00649853 0.00186084
    vertex 0.11 0.00742798 0.00189136
    vertex 0.11 0.00695471 0.00119266
  endloop
endfacet
facet normal -1 0 0
  outer loop
    vertex 0.11 0.00675342 0.00262126
    vertex 0.11 0.00747877 0.00297275
    vertex 0.11 0.00742798 0.00189136
  endloop
endfacet
facet normal -1 0 0
  outer loop
    vertex 0.11 0.00380062 0.00787457
    vertex 0.11 0.00272231 0.00841057
    vertex 0.11 0.00384662 0.00893066
  endloop
endfacet
facet normal -1 0 -0
  outer loop
    vertex 0.11 0.00777785 0.00915735
    vertex 0.11 0.00853553 0.00853553
    vertex 0.11 0.0075764 0.00786838
  endloop
endfacet
facet normal -1 0 0
  outer loop
    vertex 0.11 0.00774015 0.00668903
    vertex 0.11 0.0075764 0.00786838
    vertex 0.11 0.00856122 0.00734955
  endloop
endfacet
facet normal -1 0 0
  outer loop
    vertex 0.11 0.0075764 0.00786838
    vertex 0.11 0.00853553 0.00853553
    vertex 0.11 0.00856122 0.00734955
  endloop
endfacet
facet normal -1 0 0
  outer loop
    vertex 0.11 0.00417124 0.00371896
    vertex 0.11 0.00507019 0.00404227
    vertex 0.11 0.00499248 0.00321416
  endloop
endfacet
facet normal -1 0 0
  outer loop
    vertex 0.11 0.00480768 0.00832435
    vertex 0.11 0.00602527 0.00874663
    vertex 0.11 0.00558044 0.00762038
  endloop
endfacet
facet normal -1 0 0
  outer loop
    vertex 0.11 0.00558044 0.00762038
    vertex 0.11 0.00602527 0.00874663
    vertex 0.11 0.00647398 0.00777879
  endloop
endfacet
facet normal -1 0 0
  outer loop
    vertex 0.11 0.00417124 0.00371896
    vertex 0.11 0.00465114 0.00469637
    vertex 0.11 0.00507019 0.00404227
  endloop
endfacet
facet normal -1 0 0
  outer loop
    vertex 0.11 0.0075764 0.00786838
    vertex 0.11 0.00700823 0.00856037
    vertex 0.11 0.00777785 0.00915735
  endloop
endfacet
facet normal -1 0 0
  outer loop
    vertex 0.11 0.00464654 0.00747227
    vertex 0.11 0.00480768 0.00832435
    vertex 0.11 0.00558044 0.00762038
  endloop
endfacet
facet normal -1 0 0
  outer loop
    vertex 0.11 0.00915735 0.00222215
    vertex 0.11 0.00823071 0.00231681
    vertex 0.11 0.0085539 0.00303333
  endloop
endfacet
facet normal -1 -0 0
  outer loop
    vertex 0.11 0.00915735 0.00222215
    vertex 0.11 0.00853553 0.00146447
    vertex 0.11 0.00823071 0.00231681
  endloop
endfacet
facet normal -1 0 0
  outer loop
    vertex 0.11 0.00647398 0.00777879
    vertex 0.11 0.00700823 0.00856037
    vertex 0.11 0.0075764 0.00786838
  endloop
endfacet
facet normal -1 0 0
  outer loop
    vertex 0.11 0.000380602 0.00308658
    vertex 0.11 0.00100016 0.00430472
    vertex 0.11 0.00157414 0.00316202
  endloop
endfacet
facet normal -1 0 0
  outer loop
    vertex 0.11 0.00213633 0.00422074
    vertex 0.11 0.00309465 0.00403033
    vertex 0.11 0.0023567 0.00350391
  endloop
endfacet
facet normal -1 0 0
  outer loop
    vertex 0.11 9.60736e-05 0.00402455
    vertex 0.11 0.00100016 0.00430472
    vertex 0.11 0.000380602 0.00308658
  endloop
endfacet
facet normal -1 0 0
  outer loop
    vertex 0.11 0.00405494 0.00560657
    vertex 0.11 0.00378552 0.00461151
    vertex 0.11 0.00294024 0.00516829
  endloop
endfacet
facet normal -1 0 0
  outer loop
    vertex 0.11 0.00805416 0.00395211
    vertex 0.11 0.00813162 0.00487777
    vertex 0.11 0.00901859 0.00451493
  endloop
endfacet
facet normal -1 0 0
  outer loop
    vertex 0.11 0.00805416 0.00395211
    vertex 0.11 0.0072433 0.00482466
    vertex 0.11 0.00813162 0.00487777
  endloop
endfacet
facet normal -1 0 0
  outer loop
    vertex 0.11 0.00555047 0.00177298
    vertex 0.11 0.00649853 0.00186084
    vertex 0.11 0.00614683 0.00102657
  endloop
endfacet
facet normal -1 0 0
  outer loop
    vertex 0.11 0.00289042 0.00726328
    vertex 0.11 0.00380062 0.00787457
    vertex 0.11 0.00399665 0.00678397
  endloop
endfacet
facet normal -1 -0 0
  outer loop
    vertex 0.11 0.00614683 0.00102657
    vertex 0.11 0.00498841 0.000856279
    vertex 0.11 0.00555047 0.00177298
  endloop
endfacet
facet normal -1 0 0
  outer loop
    vertex 0.11 0.00309465 0.00403033
    vertex 0.11 0.00294024 0.00516829
    vertex 0.11 0.00378552 0.00461151
  endloop
endfacet
facet normal -1 -0 0
  outer loop
    vertex 0.11 0.00691342 0.000380602
    vertex 0.11 0.00597545 9.60736e-05
    vertex 0.11 0.00614683 0.00102657
  endloop
endfacet
facet normal -1 0 -0
  outer loop
    vertex 0.11 0.00448066 0.00184514
    vertex 0.11 0.00498841 0.000856279
    vertex 0.11 0.0037409 0.0011571
  endloop
endfacet
facet normal -1 0 0
  outer loop
    vertex 0.11 9.60736e-05 0.00402455
    vertex 0.11 0 0.005
    vertex 0.11 0.00100016 0.00430472
  endloop
endfacet
facet normal -1 -0 0
  outer loop
    vertex 0.11 0.00498841 0.000856279
    vertex 0.11 0.00402455 9.60736e-05
    vertex 0.11 0.0037409 0.0011571
  endloop
endfacet
facet normal -1 0 0
  outer loop
    vertex 0.11 0.00402455 9.60736e-05
    vertex 0.11 0.00498841 0.000856279
    vertex 0.11 0.005 0
  endloop
endfacet
facet normal -1 0 -0
  outer loop
    vertex 0.11 0.0049466 0.00930158
    vertex 0.11 0.00602527 0.00874663
    vertex 0.11 0.00480768 0.00832435
  endloop
endfacet
facet normal -1 0 0
  outer loop
    vertex 0.11 0.00649853 0.00186084
    vertex 0.11 0.00585641 0.0026842
    vertex 0.11 0.00675342 0.00262126
  endloop
endfacet
facet normal -1 0 0
  outer loop
    vertex 0.11 0.00651382 0.00335614
    vertex 0.11 0.00747877 0.00297275
    vertex 0.11 0.00675342 0.00262126
  endloop
endfacet
facet normal -1 -0 0
  outer loop
    vertex 0.11 0.00853553 0.00146447
    vertex 0.11 0.00777785 0.000842652
    vertex 0.11 0.00742798 0.00189136
  endloop
endfacet
facet normal -1 0 0
  outer loop
    vertex 0.11 0.00675342 0.00262126
    vertex 0.11 0.00585641 0.0026842
    vertex 0.11 0.00651382 0.00335614
  endloop
endfacet
facet normal -1 0 0
  outer loop
    vertex 0.11 0.00096192 0.00548401
    vertex 0.11 9.60736e-05 0.00597545
    vertex 0.11 0.00114173 0.00658728
  endloop
endfacet
facet normal -1 -0 0
  outer loop
    vertex 0.11 0.00114173 0.00658728
    vertex 0.11 9.60736e-05 0.00597545
    vertex 0.11 0.000380602 0.00691342
  endloop
endfacet
facet normal -1 0 -0
  outer loop
    vertex 0.11 0.00180587 0.00218897
    vertex 0.11 0.00260178 0.00154218
    vertex 0.11 0.00146447 0.00146447
  endloop
endfacet
facet normal -1 0 0
  outer loop
    vertex 0.11 0.00260178 0.00154218
    vertex 0.11 0.0037409 0.0011571
    vertex 0.11 0.00308658 0.000380602
  endloop
endfacet
facet normal -1 0 0
  outer loop
    vertex 0.11 0.00614332 0.00686318
    vertex 0.11 0.00647398 0.00777879
    vertex 0.11 0.00693781 0.00700803
  endloop
endfacet
facet normal -1 0 0
  outer loop
    vertex 0.11 0.0049466 0.00930158
    vertex 0.11 0.00402455 0.00990393
    vertex 0.11 0.005 0.01
  endloop
endfacet
facet normal -1 -0 0
  outer loop
    vertex 0.11 0.0049466 0.00930158
    vertex 0.11 0.00384662 0.00893066
    vertex 0.11 0.00402455 0.00990393
  endloop
endfacet
facet normal -1 0 0
  outer loop
    vertex 0.11 0.0049466 0.00930158
    vertex 0.11 0.00480768 0.00832435
    vertex 0.11 0.00384662 0.00893066
  endloop
endfacet
facet normal -1 0 -0
  outer loop
    vertex 0.11 0.00249667 0.00260707
    vertex 0.11 0.00260178 0.00154218
    vertex 0.11 0.00180587 0.00218897
  endloop
endfacet
facet normal -1 0 0
  outer loop
    vertex 0.11 0.00893341 0.00540102
    vertex 0.11 0.01 0.005
    vertex 0.11 0.00901859 0.00451493
  endloop
endfacet
facet normal -1 0 0
  outer loop
    vertex 0.11 0.00893341 0.00540102
    vertex 0.11 0.00990393 0.00597545
    vertex 0.11 0.01 0.005
  endloop
endfacet
facet normal -1 0 0
  outer loop
    vertex 0.11 0.00308658 0.000380602
    vertex 0.11 0.00222215 0.000842652
    vertex 0.11 0.00260178 0.00154218
  endloop
endfacet
facet normal -1 0 0
  outer loop
    vertex 0.11 0.00289042 0.00726328
    vertex 0.11 0.00272231 0.00841057
    vertex 0.11 0.00380062 0.00787457
  endloop
endfacet
facet normal -1 -0 0
  outer loop
    vertex 0.11 0.00464654 0.00747227
    vertex 0.11 0.00399665 0.00678397
    vertex 0.11 0.00380062 0.00787457
  endloop
endfacet
facet normal -1 -0 0
  outer loop
    vertex 0.11 0.00272231 0.00841057
    vertex 0.11 0.0018676 0.00752132
    vertex 0.11 0.00146447 0.00853553
  endloop
endfacet
facet normal -1 0 -0
  outer loop
    vertex 0.11 0.00222215 0.00915735
    vertex 0.11 0.00272231 0.00841057
    vertex 0.11 0.00146447 0.00853553
  endloop
endfacet
facet normal -1 0 0
  outer loop
    vertex 0.11 0.00380062 0.00787457
    vertex 0.11 0.00480768 0.00832435
    vertex 0.11 0.00464654 0.00747227
  endloop
endfacet
facet normal -1 0 0
  outer loop
    vertex 0.11 0.0018676 0.00752132
    vertex 0.11 0.00272231 0.00841057
    vertex 0.11 0.00289042 0.00726328
  endloop
endfacet
facet normal -1 -0 0
  outer loop
    vertex 0.11 0.00405494 0.00560657
    vertex 0.11 0.00294024 0.00516829
    vertex 0.11 0.00313661 0.00625187
  endloop
endfacet
facet normal -1 0 0
  outer loop
    vertex 0.11 0.00405494 0.00560657
    vertex 0.11 0.00313661 0.00625187
    vertex 0.11 0.00399665 0.00678397
  endloop
endfacet
facet normal -1 0 0
  outer loop
    vertex 0.11 0.00602527 0.00874663
    vertex 0.11 0.00691342 0.0096194
    vertex 0.11 0.00700823 0.00856037
  endloop
endfacet
facet normal -1 -0 0
  outer loop
    vertex 0.11 0.00700823 0.00856037
    vertex 0.11 0.00647398 0.00777879
    vertex 0.11 0.00602527 0.00874663
  endloop
endfacet
facet normal -1 0 0
  outer loop
    vertex 0.11 0.00597545 0.00990393
    vertex 0.11 0.00691342 0.0096194
    vertex 0.11 0.00602527 0.00874663
  endloop
endfacet
facet normal -1 0 0
  outer loop
    vertex 0.11 0.00222215 0.00915735
    vertex 0.11 0.00308658 0.0096194
    vertex 0.11 0.00272231 0.00841057
  endloop
endfacet
facet normal -1 0 -0
  outer loop
    vertex 0.11 0.00464654 0.00747227
    vertex 0.11 0.00516419 0.00665492
    vertex 0.11 0.00399665 0.00678397
  endloop
endfacet
facet normal -1 -0 0
  outer loop
    vertex 0.11 0.00777785 0.00915735
    vertex 0.11 0.00700823 0.00856037
    vertex 0.11 0.00691342 0.0096194
  endloop
endfacet
facet normal -1 0 0
  outer loop
    vertex 0.11 0.00853553 0.00853553
    vertex 0.11 0.00915735 0.00777785
    vertex 0.11 0.00856122 0.00734955
  endloop
endfacet
facet normal -1 0 0
  outer loop
    vertex 0.11 0.00313661 0.00625187
    vertex 0.11 0.00294024 0.00516829
    vertex 0.11 0.00239244 0.00587169
  endloop
endfacet
facet normal -1 0 0
  outer loop
    vertex 0.11 0.00239244 0.00587169
    vertex 0.11 0.00216172 0.00655745
    vertex 0.11 0.00313661 0.00625187
  endloop
endfacet
facet normal -1 0 0
  outer loop
    vertex 0.11 0.00516419 0.00665492
    vertex 0.11 0.00464654 0.00747227
    vertex 0.11 0.00558044 0.00762038
  endloop
endfacet
facet normal -1 0 0
  outer loop
    vertex 0.11 0.00180587 0.00218897
    vertex 0.11 0.00157414 0.00316202
    vertex 0.11 0.00249667 0.00260707
  endloop
endfacet
facet normal -1 0 -0
  outer loop
    vertex 0.11 0.00585641 0.0026842
    vertex 0.11 0.00649853 0.00186084
    vertex 0.11 0.00555047 0.00177298
  endloop
endfacet
facet normal -1 0 0
  outer loop
    vertex 0.11 0.000842652 0.00222215
    vertex 0.11 0.00157414 0.00316202
    vertex 0.11 0.00180587 0.00218897
  endloop
endfacet
facet normal -1 0 -0
  outer loop
    vertex 0.11 0.00893341 0.00540102
    vertex 0.11 0.00901859 0.00451493
    vertex 0.11 0.00813162 0.00487777
  endloop
endfacet
facet normal -1 -0 0
  outer loop
    vertex 0.11 0.00180587 0.00218897
    vertex 0.11 0.00146447 0.00146447
    vertex 0.11 0.000842652 0.00222215
  endloop
endfacet
facet normal -1 0 0
  outer loop
    vertex 0.11 0.00901666 0.00368148
    vertex 0.11 0.00990393 0.00402455
    vertex 0.11 0.0096194 0.00308658
  endloop
endfacet
facet normal -1 0 -0
  outer loop
    vertex 0.11 0.00213633 0.00422074
    vertex 0.11 0.0023567 0.00350391
    vertex 0.11 0.00157414 0.00316202
  endloop
endfacet
facet normal -1 0 0
  outer loop
    vertex 0.11 0.00157414 0.00316202
    vertex 0.11 0.00100016 0.00430472
    vertex 0.11 0.00213633 0.00422074
  endloop
endfacet
facet normal -1 0 -0
  outer loop
    vertex 0.11 0.00384662 0.00893066
    vertex 0.11 0.00480768 0.00832435
    vertex 0.11 0.00380062 0.00787457
  endloop
endfacet
facet normal -1 0 0
  outer loop
    vertex 0.11 0.00249667 0.00260707
    vertex 0.11 0.00157414 0.00316202
    vertex 0.11 0.0023567 0.00350391
  endloop
endfacet
facet normal -1 0 -0
  outer loop
    vertex 0.11 0.00742798 0.00189136
    vertex 0.11 0.00777785 0.000842652
    vertex 0.11 0.00695471 0.00119266
  endloop
endfacet
facet normal -1 0 0
  outer loop
    vertex 0.11 0.00691342 0.000380602
    vertex 0.11 0.00614683 0.00102657
    vertex 0.11 0.00695471 0.00119266
  endloop
endfacet
facet normal -1 0 0
  outer loop
    vertex 0.11 0.0018676 0.00752132
    vertex 0.11 0.00289042 0.00726328
    vertex 0.11 0.00216172 0.00655745
  endloop
endfacet
facet normal -1 -0 0
  outer loop
    vertex 0.11 0.00384662 0.00893066
    vertex 0.11 0.00272231 0.00841057
    vertex 0.11 0.00308658 0.0096194
  endloop
endfacet
facet normal -1 0 0
  outer loop
    vertex 0.11 0.00313661 0.00625187
    vertex 0.11 0.00289042 0.00726328
    vertex 0.11 0.00399665 0.00678397
  endloop
endfacet
facet normal -1 -0 0
  outer loop
    vertex 0.11 0.00626848 0.0052407
    vertex 0.11 0.00558696 0.00461508
    vertex 0.11 0.00522533 0.00556816
  endloop
endfacet
facet normal -1 0 0
  outer loop
    vertex 0.11 0.00893341 0.00540102
    vertex 0.11 0.0087385 0.00631309
    vertex 0.11 0.00990393 0.00597545
  endloop
endfacet
facet normal -1 0 0
  outer loop
    vertex 0.11 0.00813162 0.00487777
    vertex 0.11 0.00786088 0.0056314
    vertex 0.11 0.00893341 0.00540102
  endloop
endfacet
facet normal -1 0 0
  outer loop
    vertex 0.11 0.00096192 0.00548401
    vertex 0.11 0.00185209 0.00515515
    vertex 0.11 0.00100016 0.00430472
  endloop
endfacet
facet normal -1 0 0
  outer loop
    vertex 0.11 0.00786088 0.0056314
    vertex 0.11 0.00774015 0.00668903
    vertex 0.11 0.0087385 0.00631309
  endloop
endfacet
facet normal -1 0 -0
  outer loop
    vertex 0.11 0.0087385 0.00631309
    vertex 0.11 0.00893341 0.00540102
    vertex 0.11 0.00786088 0.0056314
  endloop
endfacet
facet normal -1 0 0
  outer loop
    vertex 0.11 0.00417678 0.00278293
    vertex 0.11 0.00503157 0.0023472
    vertex 0.11 0.00448066 0.00184514
  endloop
endfacet
facet normal -1 0 -0
  outer loop
    vertex 0.11 0.00558044 0.00762038
    vertex 0.11 0.00614332 0.00686318
    vertex 0.11 0.00516419 0.00665492
  endloop
endfacet
facet normal -1 0 0
  outer loop
    vertex 0.11 0.00574819 0.00370012
    vertex 0.11 0.00646839 0.00431651
    vertex 0.11 0.00651382 0.00335614
  endloop
endfacet
facet normal -1 0 0
  outer loop
    vertex 0.11 0.00614332 0.00686318
    vertex 0.11 0.00558044 0.00762038
    vertex 0.11 0.00647398 0.00777879
  endloop
endfacet
facet normal -1 0 0
  outer loop
    vertex 0.11 0.00901666 0.00368148
    vertex 0.11 0.00901859 0.00451493
    vertex 0.11 0.00990393 0.00402455
  endloop
endfacet
facet normal -1 0 0
  outer loop
    vertex 0.11 0.00990393 0.00402455
    vertex 0.11 0.00901859 0.00451493
    vertex 0.11 0.01 0.005
  endloop
endfacet
facet normal -1 0 0
  outer loop
    vertex 0.11 0.00405494 0.00560657
    vertex 0.11 0.00522533 0.00556816
    vertex 0.11 0.00465114 0.00469637
  endloop
endfacet
facet normal -1 0 -0
  outer loop
    vertex 0.11 0.00522533 0.00556816
    vertex 0.11 0.00558696 0.00461508
    vertex 0.11 0.00465114 0.00469637
  endloop
endfacet
facet normal -1 0 0
  outer loop
    vertex 0.11 0.0049466 0.00930158
    vertex 0.11 0.00597545 0.00990393
    vertex 0.11 0.00602527 0.00874663
  endloop
endfacet
facet normal -1 0 -0
  outer loop
    vertex 0.11 0.005 0.01
    vertex 0.11 0.00597545 0.00990393
    vertex 0.11 0.0049466 0.00930158
  endloop
endfacet
facet normal -1 0 0
  outer loop
    vertex 0.11 0.000842652 0.00222215
    vertex 0.11 0.000380602 0.00308658
    vertex 0.11 0.00157414 0.00316202
  endloop
endfacet
facet normal -1 0 0
  outer loop
    vertex 0.11 0.00574819 0.00370012
    vertex 0.11 0.00558696 0.00461508
    vertex 0.11 0.00646839 0.00431651
  endloop
endfacet
facet normal -1 -0 0
  outer loop
    vertex 0.11 0.00555047 0.00177298
    vertex 0.11 0.00498841 0.000856279
    vertex 0.11 0.00448066 0.00184514
  endloop
endfacet
facet normal -1 0 0
  outer loop
    vertex 0.11 0.00448066 0.00184514
    vertex 0.11 0.00503157 0.0023472
    vertex 0.11 0.00555047 0.00177298
  endloop
endfacet
facet normal -1 0 0
  outer loop
    vertex 0.11 0.00590924 0.00605787
    vertex 0.11 0.00614332 0.00686318
    vertex 0.11 0.006881 0.00601863
  endloop
endfacet
facet normal -1 0 -0
  outer loop
    vertex 0.11 0.00590924 0.00605787
    vertex 0.11 0.00626848 0.0052407
    vertex 0.11 0.00522533 0.00556816
  endloop
endfacet
facet normal -1 0 0
  outer loop
    vertex 0.11 0.00448066 0.00184514
    vertex 0.11 0.00339581 0.00215437
    vertex 0.11 0.00417678 0.00278293
  endloop
endfacet
facet normal -1 0 0
  outer loop
    vertex 0.11 0.00417124 0.00371896
    vertex 0.11 0.00499248 0.00321416
    vertex 0.11 0.00417678 0.00278293
  endloop
endfacet
facet normal -1 0 0
  outer loop
    vertex 0.11 0.00786088 0.0056314
    vertex 0.11 0.006881 0.00601863
    vertex 0.11 0.00774015 0.00668903
  endloop
endfacet
facet normal -1 0 0
  outer loop
    vertex 0.11 0.00465114 0.00469637
    vertex 0.11 0.00417124 0.00371896
    vertex 0.11 0.00378552 0.00461151
  endloop
endfacet
facet normal -1 0 0
  outer loop
    vertex 0.11 0.0072433 0.00482466
    vertex 0.11 0.006881 0.00601863
    vertex 0.11 0.00786088 0.0056314
  endloop
endfacet
facet normal -1 0 0
  outer loop
    vertex 0.11 0.00417678 0.00278293
    vertex 0.11 0.00499248 0.00321416
    vertex 0.11 0.00503157 0.0023472
  endloop
endfacet
facet normal -1 0 -0
  outer loop
    vertex 0.11 0.00378552 0.00461151
    vertex 0.11 0.00417124 0.00371896
    vertex 0.11 0.00309465 0.00403033
  endloop
endfacet
facet normal -1 0 0
  outer loop
    vertex 0.11 0.00626848 0.0052407
    vertex 0.11 0.006881 0.00601863
    vertex 0.11 0.0072433 0.00482466
  endloop
endfacet
facet normal -1 0 -0
  outer loop
    vertex 0.11 0.00626848 0.0052407
    vertex 0.11 0.00646839 0.00431651
    vertex 0.11 0.00558696 0.00461508
  endloop
endfacet
facet normal -1 0 0
  outer loop
    vertex 0.11 0.00693781 0.00700803
    vertex 0.11 0.00647398 0.00777879
    vertex 0.11 0.0075764 0.00786838
  endloop
endfacet
facet normal -1 -0 0
  outer loop
    vertex 0.11 0.0072433 0.00482466
    vertex 0.11 0.00646839 0.00431651
    vertex 0.11 0.00626848 0.0052407
  endloop
endfacet
facet normal -1 0 -0
  outer loop
    vertex 0.11 0.00309465 0.00403033
    vertex 0.11 0.00322757 0.00318512
    vertex 0.11 0.0023567 0.00350391
  endloop
endfacet
facet normal -1 0 0
  outer loop
    vertex 0.11 0.0023567 0.00350391
    vertex 0.11 0.00322757 0.00318512
    vertex 0.11 0.00249667 0.00260707
  endloop
endfacet
facet normal -1 0 -0
  outer loop
    vertex 0.11 0.0075764 0.00786838
    vertex 0.11 0.00774015 0.00668903
    vertex 0.11 0.00693781 0.00700803
  endloop
endfacet
facet normal -1 0 -0
  outer loop
    vertex 0.11 0.0072433 0.00482466
    vertex 0.11 0.00805416 0.00395211
    vertex 0.11 0.00711592 0.0039309
  endloop
endfacet
facet normal -1 0 0
  outer loop
    vertex 0.11 0.00213633 0.00422074
    vertex 0.11 0.00100016 0.00430472
    vertex 0.11 0.00185209 0.00515515
  endloop
endfacet
facet normal -1 0 0
  outer loop
    vertex 0.11 0.00711592 0.0039309
    vertex 0.11 0.00805416 0.00395211
    vertex 0.11 0.00747877 0.00297275
  endloop
endfacet
facet normal -1 0 0
  outer loop
    vertex 0.11 0.00711592 0.0039309
    vertex 0.11 0.00646839 0.00431651
    vertex 0.11 0.0072433 0.00482466
  endloop
endfacet
facet normal -1 0 0
  outer loop
    vertex 0.11 0.00185209 0.00515515
    vertex 0.11 0.00096192 0.00548401
    vertex 0.11 0.00168152 0.00588147
  endloop
endfacet
facet normal -1 0 0
  outer loop
    vertex 0.11 0.00294024 0.00516829
    vertex 0.11 0.00213633 0.00422074
    vertex 0.11 0.00185209 0.00515515
  endloop
endfacet
facet normal -1 0 0
  outer loop
    vertex 0.11 0.00309465 0.00403033
    vertex 0.11 0.00213633 0.00422074
    vertex 0.11 0.00294024 0.00516829
  endloop
endfacet
facet normal -1 0 0
  outer loop
    vertex 0.11 0.00114173 0.00658728
    vertex 0.11 0.00216172 0.00655745
    vertex 0.11 0.00168152 0.00588147
  endloop
endfacet
facet normal -1 -0 0
  outer loop
    vertex 0.11 0.00168152 0.00588147
    vertex 0.11 0.00096192 0.00548401
    vertex 0.11 0.00114173 0.00658728
  endloop
endfacet
facet normal -1 0 0
  outer loop
    vertex 0.11 0.00216172 0.00655745
    vertex 0.11 0.00289042 0.00726328
    vertex 0.11 0.00313661 0.00625187
  endloop
endfacet
facet normal -1 -0 0
  outer loop
    vertex 0.11 0.00574819 0.00370012
    vertex 0.11 0.00499248 0.00321416
    vertex 0.11 0.00507019 0.00404227
  endloop
endfacet
facet normal -1 0 0
  outer loop
    vertex 0.11 0.00339581 0.00215437
    vertex 0.11 0.00322757 0.00318512
    vertex 0.11 0.00417678 0.00278293
  endloop
endfacet
facet normal -1 0 0
  outer loop
    vertex 0.11 0.00465114 0.00469637
    vertex 0.11 0.00558696 0.00461508
    vertex 0.11 0.00507019 0.00404227
  endloop
endfacet
facet normal -1 0 0
  outer loop
    vertex 0.11 0.00507019 0.00404227
    vertex 0.11 0.00558696 0.00461508
    vertex 0.11 0.00574819 0.00370012
  endloop
endfacet
facet normal -1 -0 0
  outer loop
    vertex 0.11 0.00339581 0.00215437
    vertex 0.11 0.00260178 0.00154218
    vertex 0.11 0.00249667 0.00260707
  endloop
endfacet
facet normal -1 0 0
  outer loop
    vertex 0.11 0.00249667 0.00260707
    vertex 0.11 0.00322757 0.00318512
    vertex 0.11 0.00339581 0.00215437
  endloop
endfacet
facet normal -1 0 0
  outer loop
    vertex 0.11 0.00585641 0.0026842
    vertex 0.11 0.00499248 0.00321416
    vertex 0.11 0.00574819 0.00370012
  endloop
endfacet
facet normal -1 0 0
  outer loop
    vertex 0.11 0.00322757 0.00318512
    vertex 0.11 0.00417124 0.00371896
    vertex 0.11 0.00417678 0.00278293
  endloop
endfacet
facet normal -1 0 0
  outer loop
    vertex 0.11 0.00309465 0.00403033
    vertex 0.11 0.00417124 0.00371896
    vertex 0.11 0.00322757 0.00318512
  endloop
endfacet
facet normal -1 -0 0
  outer loop
    vertex 0.11 0.006881 0.00601863
    vertex 0.11 0.00626848 0.0052407
    vertex 0.11 0.00590924 0.00605787
  endloop
endfacet
facet normal -1 0 0
  outer loop
    vertex 0.11 0.00399665 0.00678397
    vertex 0.11 0.00516419 0.00665492
    vertex 0.11 0.00464908 0.00616579
  endloop
endfacet
facet normal -1 0 0
  outer loop
    vertex 0.11 0.00522533 0.00556816
    vertex 0.11 0.00405494 0.00560657
    vertex 0.11 0.00464908 0.00616579
  endloop
endfacet
facet normal -1 0 0
  outer loop
    vertex 0.11 0.00464908 0.00616579
    vertex 0.11 0.00516419 0.00665492
    vertex 0.11 0.00522533 0.00556816
  endloop
endfacet
facet normal -1 -0 0
  outer loop
    vertex 0.11 0.00464908 0.00616579
    vertex 0.11 0.00405494 0.00560657
    vertex 0.11 0.00399665 0.00678397
  endloop
endfacet
facet normal -1 0 0
  outer loop
    vertex 0.11 0.00742798 0.00189136
    vertex 0.11 0.00747877 0.00297275
    vertex 0.11 0.00823071 0.00231681
  endloop
endfacet
facet normal -1 0 -0
  outer loop
    vertex 0.11 0.00695471 0.00119266
    vertex 0.11 0.00777785 0.000842652
    vertex 0.11 0.00691342 0.000380602
  endloop
endfacet
facet normal -1 0 0
  outer loop
    vertex 0.11 0.00823071 0.00231681
    vertex 0.11 0.00747877 0.00297275
    vertex 0.11 0.0085539 0.00303333
  endloop
endfacet
facet normal -1 0 -0
  outer loop
    vertex 0.11 0.00823071 0.00231681
    vertex 0.11 0.00853553 0.00146447
    vertex 0.11 0.00742798 0.00189136
  endloop
endfacet
endsolid membrane
